# xmcd
#
# Track frame offsets:
#	150
#	12740
#	32930
#	46460
#	57460
#	69650
#	82352
#	95362
#	116305
#	130632
#	147887
#
# Disc length: 2197 seconds
#
# Revision: 2
# Processed by: cddbd v1.5.2PL0 Copyright (c) Steve Scherf et al.
# Submitted via: audiograbber 1.83.01
#
DISCID=9f08930b
DTITLE=Nanci Griffith - The Last of the True Believers
DYEAR=1986
DGENRE=Pop
TTITLE0=Lookin' for the Time (Workin' Girl)
TTITLE1=Goin' Gone
TTITLE2=One of These Days
TTITLE3=Love's Found a Shoulder
TTITLE4=Fly by Night
TTITLE5=The Wing and the Wheel
TTITLE6=The Last of the True Believers
TTITLE7=Love at the Five and Dime
TTITLE8=St. Olav's Gate
TTITLE9=More than a Whisper
TTITLE10=Banks of the Pontchartrain
EXTD=
EXTT0=
EXTT1=
EXTT2=
EXTT3=
EXTT4=
EXTT5=
EXTT6=
EXTT7=
EXTT8=
EXTT9=
EXTT10=
PLAYORDER=
